<svg xmlns="http://www.w3.org/2000/svg" viewBox="0 0 1200 700" role="img" aria-labelledby="title desc">
  <title id="title">Merenda escolar em bandeja</title>
  <desc id="desc">Ilustração de bandeja de merenda escolar com alimentos.</desc>
  <defs>
    <linearGradient id="bg" x1="0" y1="0" x2="1" y2="1">
      <stop offset="0" stop-color="#f7efe5"/>
      <stop offset="1" stop-color="#e6f2ec"/>
    </linearGradient>
  </defs>
  <rect width="1200" height="700" fill="url(#bg)"/>
  <rect x="120" y="90" width="960" height="520" rx="28" fill="#d7ddd8" stroke="#9ca8a1" stroke-width="8"/>
  <rect x="160" y="130" width="300" height="220" rx="20" fill="#fff7ea" stroke="#d5c9b5" stroke-width="6"/>
  <rect x="500" y="130" width="540" height="220" rx="20" fill="#eef8f1" stroke="#b9d2bf" stroke-width="6"/>
  <rect x="160" y="390" width="420" height="180" rx="20" fill="#fef1ef" stroke="#dfc1bc" stroke-width="6"/>
  <rect x="620" y="390" width="420" height="180" rx="20" fill="#f4f7ff" stroke="#c7d0ea" stroke-width="6"/>

  <ellipse cx="300" cy="240" rx="110" ry="72" fill="#f0d08a"/>
  <ellipse cx="300" cy="240" rx="88" ry="56" fill="#f7dfaa"/>
  <ellipse cx="760" cy="240" rx="200" ry="78" fill="#b66b3e"/>
  <ellipse cx="760" cy="240" rx="182" ry="62" fill="#c67b4c"/>
  <circle cx="250" cy="460" r="46" fill="#88ba67"/>
  <circle cx="330" cy="470" r="52" fill="#6aa653"/>
  <circle cx="410" cy="455" r="45" fill="#94c46c"/>
  <ellipse cx="830" cy="470" rx="130" ry="56" fill="#f3c56f"/>
  <ellipse cx="830" cy="470" rx="108" ry="40" fill="#f7d58f"/>

  <rect x="60" y="40" width="250" height="80" rx="16" fill="#1f6d5c"/>
  <text x="86" y="90" font-family="Arial, sans-serif" font-size="34" font-weight="700" fill="#ffffff">Merenda Escolar</text>
</svg>
